<svg width="512" height="512" viewBox="0 0 512 512" fill="none" xmlns="http://www.w3.org/2000/svg">
<rect x="108" y="122" width="308" height="274" fill="#D9D9D9"/>
<path d="M256 512C397.4 512 512 397.4 512 256C512 114.6 397.4 0 256 0C114.6 0 0 114.6 0 256C0 397.4 114.6 512 256 512ZM224 192V320C224 337.7 209.7 352 192 352C174.3 352 160 337.7 160 320V192C160 174.3 174.3 160 192 160C209.7 160 224 174.3 224 192ZM352 192V320C352 337.7 337.7 352 320 352C302.3 352 288 337.7 288 320V192C288 174.3 302.3 160 320 160C337.7 160 352 174.3 352 192Z" fill="#FFBB0C"/>
</svg>
